<svg xmlns="http://www.w3.org/2000/svg" xmlns:xlink="http://www.w3.org/1999/xlink" width="100" zoomAndPan="magnify" viewBox="0 0 75 30.000001" height="40" preserveAspectRatio="xMidYMid meet" version="1.0"><defs><clipPath id="c115b333cf"><path d="M 23 12.519531 L 52 12.519531 L 52 16.148438 L 23 16.148438 Z M 23 12.519531 " clip-rule="nonzero"/></clipPath></defs><g clip-path="url(#c115b333cf)"><path fill="#000000" d="M 37.09375 14.0625 L 35.207031 14.0625 C 35.085938 14.0625 34.988281 14.152344 34.988281 14.261719 L 34.988281 16.144531 L 34.285156 16.144531 L 34.285156 13.898438 C 34.285156 13.632812 34.519531 13.421875 34.8125 13.421875 L 37.101562 13.421875 L 37.101562 14.0625 Z M 40.332031 16.148438 L 40.332031 15.511719 L 38.445312 15.511719 C 38.324219 15.511719 38.222656 15.417969 38.222656 15.308594 L 38.222656 14.261719 C 38.222656 14.152344 38.324219 14.0625 38.445312 14.0625 L 41.039062 14.0625 L 41.039062 16.144531 L 41.742188 16.144531 L 41.742188 13.421875 L 38.039062 13.421875 C 37.75 13.421875 37.515625 13.632812 37.515625 13.898438 L 37.515625 15.671875 C 37.515625 15.9375 37.75 16.148438 38.039062 16.148438 Z M 42.375 16.148438 L 43.078125 16.148438 L 43.078125 14.0625 L 45.675781 14.0625 C 45.792969 14.0625 45.894531 14.152344 45.894531 14.261719 L 45.894531 16.144531 L 46.597656 16.144531 L 46.597656 13.898438 C 46.597656 13.632812 46.363281 13.421875 46.070312 13.421875 L 42.367188 13.421875 L 42.367188 16.148438 Z M 51.28125 14.0625 L 48.15625 14.0625 C 48.035156 14.0625 47.9375 14.152344 47.9375 14.261719 L 47.9375 15.304688 C 47.9375 15.414062 48.035156 15.503906 48.15625 15.503906 L 51.058594 15.503906 C 51.179688 15.503906 51.28125 15.414062 51.28125 15.304688 Z M 51.980469 15.671875 C 51.980469 15.9375 51.746094 16.148438 51.457031 16.148438 L 47.753906 16.148438 C 47.460938 16.148438 47.226562 15.9375 47.226562 15.671875 L 47.226562 13.898438 C 47.226562 13.632812 47.460938 13.421875 47.753906 13.421875 L 51.28125 13.421875 L 51.28125 12.519531 L 51.980469 12.519531 Z M 28.296875 14.0625 L 23.941406 14.0625 C 23.820312 14.0625 23.71875 14.152344 23.71875 14.261719 L 23.71875 15.304688 C 23.71875 15.414062 23.820312 15.503906 23.941406 15.503906 L 26.84375 15.503906 C 26.964844 15.503906 27.0625 15.414062 27.0625 15.304688 L 27.0625 14.546875 L 27.773438 14.546875 L 27.773438 15.671875 C 27.773438 15.9375 27.539062 16.148438 27.246094 16.148438 L 23.542969 16.148438 C 23.253906 16.148438 23.019531 15.9375 23.019531 15.671875 L 23.019531 13.898438 C 23.019531 13.632812 23.253906 13.421875 23.542969 13.421875 L 27.0625 13.421875 L 27.0625 12.519531 L 27.773438 12.519531 L 27.773438 13.421875 L 28.820312 13.421875 L 28.820312 12.519531 L 29.523438 12.519531 L 29.523438 13.421875 L 33.050781 13.421875 C 33.34375 13.421875 33.574219 13.632812 33.574219 13.898438 L 33.574219 15.671875 C 33.574219 15.9375 33.34375 16.148438 33.050781 16.148438 L 29.347656 16.148438 C 29.054688 16.148438 28.820312 15.9375 28.820312 15.671875 L 28.820312 14.546875 L 29.523438 14.546875 L 29.523438 15.304688 C 29.523438 15.414062 29.625 15.503906 29.746094 15.503906 L 32.648438 15.503906 C 32.765625 15.503906 32.867188 15.414062 32.867188 15.304688 L 32.867188 14.261719 C 32.867188 14.152344 32.765625 14.0625 32.648438 14.0625 Z M 28.296875 14.0625 " fill-opacity="1" fill-rule="nonzero"/></g></svg>