<svg xmlns="http://www.w3.org/2000/svg" xmlns:xlink="http://www.w3.org/1999/xlink" width="100" zoomAndPan="magnify" viewBox="0 0 75 30.000001" height="40" preserveAspectRatio="xMidYMid meet" version="1.0"><defs><clipPath id="f8ef97b70f"><path d="M 19.171875 12 L 23 12 L 23 17.558594 L 19.171875 17.558594 Z M 19.171875 12 " clip-rule="nonzero"/></clipPath><clipPath id="fafb1de776"><path d="M 33 12 L 37 12 L 37 17.558594 L 33 17.558594 Z M 33 12 " clip-rule="nonzero"/></clipPath><clipPath id="ad799bf178"><path d="M 40 12 L 44 12 L 44 17.558594 L 40 17.558594 Z M 40 12 " clip-rule="nonzero"/></clipPath><clipPath id="4e3a1417d5"><path d="M 43 12 L 48 12 L 48 17.558594 L 43 17.558594 Z M 43 12 " clip-rule="nonzero"/></clipPath><clipPath id="611f20f08a"><path d="M 54 11.75 L 56 11.75 L 56 17 L 54 17 Z M 54 11.75 " clip-rule="nonzero"/></clipPath></defs><g clip-path="url(#f8ef97b70f)"><path fill="#000000" d="M 19.914062 15.566406 L 19.929688 15.566406 C 20.234375 16.003906 20.65625 16.21875 21.1875 16.210938 C 21.414062 16.210938 21.632812 16.167969 21.839844 16.082031 C 22.046875 15.996094 22.234375 15.875 22.390625 15.714844 C 22.550781 15.554688 22.675781 15.371094 22.761719 15.164062 C 22.847656 14.953125 22.890625 14.738281 22.890625 14.511719 C 22.890625 14.285156 22.847656 14.070312 22.761719 13.859375 C 22.675781 13.652344 22.550781 13.46875 22.390625 13.308594 C 22.234375 13.148438 22.046875 13.027344 21.839844 12.941406 C 21.632812 12.855469 21.414062 12.8125 21.1875 12.8125 C 20.652344 12.804688 20.234375 13.023438 19.929688 13.464844 L 19.914062 13.464844 L 19.914062 12.894531 L 19.5 12.894531 L 19.5 17.273438 L 19.914062 17.273438 Z M 21.1875 13.1875 C 21.367188 13.183594 21.539062 13.214844 21.703125 13.28125 C 21.871094 13.347656 22.015625 13.445312 22.140625 13.570312 C 22.265625 13.695312 22.363281 13.84375 22.425781 14.007812 C 22.492188 14.175781 22.519531 14.347656 22.515625 14.527344 C 22.519531 14.703125 22.488281 14.871094 22.421875 15.035156 C 22.355469 15.199219 22.257812 15.34375 22.132812 15.464844 C 22.007812 15.589844 21.863281 15.683594 21.699219 15.75 C 21.535156 15.8125 21.367188 15.84375 21.1875 15.835938 C 21.015625 15.835938 20.847656 15.800781 20.6875 15.734375 C 20.527344 15.667969 20.386719 15.570312 20.265625 15.445312 C 20.140625 15.320312 20.046875 15.179688 19.984375 15.015625 C 19.921875 14.855469 19.890625 14.6875 19.890625 14.511719 C 19.890625 14.339844 19.921875 14.171875 19.988281 14.007812 C 20.050781 13.847656 20.144531 13.707031 20.265625 13.582031 C 20.386719 13.457031 20.527344 13.359375 20.6875 13.292969 C 20.847656 13.222656 21.015625 13.1875 21.1875 13.1875 Z M 21.1875 13.1875 " fill-opacity="1" fill-rule="nonzero"/></g><path fill="#000000" d="M 25.992188 15.074219 C 25.84375 15.476562 25.425781 15.828125 24.832031 15.835938 C 24.195312 15.835938 23.605469 15.300781 23.582031 14.664062 L 26.527344 14.664062 C 26.554688 14.296875 26.472656 13.953125 26.277344 13.640625 C 26.125 13.382812 25.921875 13.183594 25.664062 13.035156 C 25.40625 12.886719 25.128906 12.8125 24.832031 12.8125 C 24.609375 12.816406 24.394531 12.859375 24.1875 12.949219 C 23.980469 13.039062 23.800781 13.160156 23.644531 13.320312 C 23.484375 13.480469 23.363281 13.664062 23.277344 13.871094 C 23.191406 14.078125 23.148438 14.292969 23.148438 14.515625 C 23.148438 14.71875 23.183594 14.910156 23.25 15.097656 C 23.316406 15.285156 23.417969 15.457031 23.546875 15.609375 C 23.671875 15.761719 23.824219 15.890625 24 15.988281 C 24.171875 16.085938 24.355469 16.152344 24.554688 16.1875 C 24.75 16.21875 24.949219 16.21875 25.144531 16.183594 C 25.339844 16.144531 25.523438 16.078125 25.695312 15.976562 C 25.867188 15.875 26.019531 15.746094 26.144531 15.589844 C 26.269531 15.4375 26.367188 15.265625 26.433594 15.074219 Z M 24.835938 13.1875 C 25.15625 13.1875 25.4375 13.292969 25.675781 13.503906 C 25.917969 13.710938 26.058594 13.976562 26.105469 14.289062 L 23.582031 14.289062 C 23.625 13.976562 23.765625 13.714844 24.003906 13.503906 C 24.242188 13.296875 24.519531 13.1875 24.835938 13.1875 Z M 24.835938 13.1875 " fill-opacity="1" fill-rule="nonzero"/><path fill="#000000" d="M 29.359375 14.351562 L 29.359375 16.136719 L 29.773438 16.136719 L 29.773438 14.351562 C 29.773438 13.816406 29.613281 13.445312 29.367188 13.207031 C 29.085938 12.921875 28.746094 12.789062 28.34375 12.8125 C 27.921875 12.796875 27.589844 12.960938 27.347656 13.308594 L 27.335938 13.308594 L 27.335938 12.894531 L 26.921875 12.894531 L 26.921875 16.136719 L 27.335938 16.136719 L 27.335938 14.351562 C 27.335938 13.929688 27.460938 13.632812 27.640625 13.46875 C 27.835938 13.28125 28.070312 13.1875 28.34375 13.1875 C 28.617188 13.1875 28.851562 13.28125 29.050781 13.46875 C 29.226562 13.632812 29.359375 13.929688 29.359375 14.351562 Z M 29.359375 14.351562 " fill-opacity="1" fill-rule="nonzero"/><path fill="#000000" d="M 33.148438 16.136719 L 33.148438 14.351562 C 33.148438 13.816406 32.988281 13.445312 32.746094 13.207031 C 32.460938 12.921875 32.121094 12.789062 31.71875 12.8125 C 31.296875 12.796875 30.964844 12.960938 30.726562 13.308594 L 30.714844 13.308594 L 30.714844 12.894531 L 30.296875 12.894531 L 30.296875 16.136719 L 30.710938 16.136719 L 30.710938 14.351562 C 30.710938 13.929688 30.835938 13.632812 31.015625 13.46875 C 31.210938 13.28125 31.449219 13.1875 31.71875 13.1875 C 31.992188 13.1875 32.226562 13.28125 32.425781 13.46875 C 32.601562 13.640625 32.734375 13.933594 32.734375 14.351562 L 32.734375 16.136719 Z M 33.148438 16.136719 " fill-opacity="1" fill-rule="nonzero"/><g clip-path="url(#fafb1de776)"><path fill="#000000" d="M 33.988281 17.273438 L 34.421875 17.273438 L 36.296875 12.894531 L 35.859375 12.894531 L 34.757812 15.476562 L 33.726562 12.894531 L 33.289062 12.894531 L 34.550781 16.027344 Z M 33.988281 17.273438 " fill-opacity="1" fill-rule="nonzero"/></g><path fill="#000000" d="M 37.898438 16.242188 C 38.351562 16.230469 38.734375 16.058594 39.046875 15.726562 L 39.046875 16.136719 L 39.769531 16.136719 L 39.769531 12.847656 L 39.046875 12.847656 L 39.046875 13.261719 L 39.03125 13.261719 C 38.753906 12.910156 38.390625 12.734375 37.941406 12.734375 C 37.027344 12.734375 36.292969 13.464844 36.292969 14.472656 C 36.296875 15.566406 37.050781 16.242188 37.898438 16.242188 Z M 38.0625 13.457031 C 38.53125 13.457031 39.023438 13.800781 39.023438 14.480469 C 39.023438 15.09375 38.609375 15.519531 38.0625 15.519531 C 37.929688 15.519531 37.804688 15.492188 37.683594 15.441406 C 37.5625 15.386719 37.453125 15.316406 37.363281 15.21875 C 37.269531 15.125 37.199219 15.015625 37.152344 14.894531 C 37.105469 14.769531 37.082031 14.644531 37.085938 14.511719 C 37.085938 14.011719 37.417969 13.457031 38.0625 13.457031 Z M 38.0625 13.457031 " fill-opacity="1" fill-rule="nonzero"/><g clip-path="url(#ad799bf178)"><path fill="#000000" d="M 41.890625 12.734375 C 41.449219 12.71875 41.09375 12.886719 40.824219 13.230469 L 40.8125 13.230469 L 40.8125 12.847656 L 40.089844 12.847656 L 40.089844 17.230469 L 40.878906 17.230469 L 40.878906 15.820312 C 41.148438 16.117188 41.488281 16.257812 41.890625 16.242188 C 42.820312 16.242188 43.539062 15.449219 43.539062 14.476562 C 43.539062 13.664062 42.96875 12.734375 41.890625 12.734375 Z M 41.789062 15.519531 C 41.65625 15.515625 41.53125 15.484375 41.410156 15.429688 C 41.292969 15.375 41.1875 15.300781 41.097656 15.203125 C 41.007812 15.105469 40.9375 14.996094 40.890625 14.871094 C 40.84375 14.75 40.824219 14.621094 40.828125 14.488281 C 40.824219 14.355469 40.847656 14.226562 40.890625 14.101562 C 40.9375 13.976562 41.007812 13.867188 41.101562 13.769531 C 41.191406 13.671875 41.296875 13.597656 41.417969 13.542969 C 41.542969 13.488281 41.667969 13.460938 41.800781 13.457031 C 42.289062 13.457031 42.75 13.882812 42.75 14.488281 C 42.753906 14.621094 42.734375 14.75 42.6875 14.871094 C 42.640625 14.996094 42.574219 15.105469 42.484375 15.203125 C 42.394531 15.300781 42.289062 15.375 42.167969 15.429688 C 42.046875 15.484375 41.921875 15.515625 41.789062 15.519531 Z M 41.789062 15.519531 " fill-opacity="1" fill-rule="nonzero"/></g><g clip-path="url(#4e3a1417d5)"><path fill="#000000" d="M 44.550781 15.820312 C 44.824219 16.117188 45.160156 16.257812 45.5625 16.242188 C 46.492188 16.242188 47.210938 15.449219 47.210938 14.476562 C 47.210938 13.664062 46.640625 12.734375 45.5625 12.734375 C 45.121094 12.71875 44.765625 12.882812 44.496094 13.230469 L 44.484375 13.230469 L 44.484375 12.847656 L 43.761719 12.847656 L 43.761719 17.230469 L 44.550781 17.230469 Z M 45.476562 13.457031 C 45.960938 13.457031 46.421875 13.882812 46.421875 14.488281 C 46.433594 14.621094 46.414062 14.75 46.371094 14.875 C 46.324219 15 46.257812 15.113281 46.167969 15.210938 C 46.074219 15.308594 45.96875 15.382812 45.847656 15.4375 C 45.726562 15.488281 45.597656 15.515625 45.464844 15.515625 C 45.332031 15.515625 45.203125 15.488281 45.082031 15.4375 C 44.957031 15.382812 44.851562 15.308594 44.761719 15.210938 C 44.667969 15.113281 44.601562 15 44.558594 14.875 C 44.511719 14.75 44.496094 14.621094 44.503906 14.488281 C 44.5 14.355469 44.519531 14.226562 44.566406 14.101562 C 44.613281 13.976562 44.683594 13.867188 44.773438 13.769531 C 44.863281 13.671875 44.972656 13.597656 45.09375 13.542969 C 45.214844 13.488281 45.34375 13.460938 45.476562 13.457031 Z M 45.476562 13.457031 " fill-opacity="1" fill-rule="nonzero"/></g><path fill="#000000" d="M 50.667969 15.097656 L 49.835938 15.097656 C 49.671875 15.398438 49.421875 15.539062 49.078125 15.519531 C 48.871094 15.519531 48.679688 15.457031 48.511719 15.332031 C 48.34375 15.207031 48.230469 15.042969 48.171875 14.84375 L 50.726562 14.84375 C 50.757812 14.710938 50.773438 14.582031 50.773438 14.445312 C 50.773438 13.617188 50.109375 12.714844 49.074219 12.714844 C 48.058594 12.714844 47.34375 13.570312 47.34375 14.5 C 47.339844 14.730469 47.382812 14.953125 47.472656 15.167969 C 47.558594 15.382812 47.683594 15.570312 47.847656 15.734375 C 48.007812 15.898438 48.199219 16.023438 48.410156 16.113281 C 48.625 16.199219 48.847656 16.242188 49.078125 16.242188 C 49.4375 16.238281 49.761719 16.128906 50.054688 15.921875 C 50.34375 15.710938 50.546875 15.4375 50.667969 15.097656 Z M 49.078125 13.441406 C 49.304688 13.441406 49.5 13.511719 49.667969 13.660156 C 49.835938 13.808594 49.933594 13.992188 49.960938 14.214844 L 48.148438 14.214844 C 48.191406 13.992188 48.300781 13.804688 48.472656 13.660156 C 48.648438 13.515625 48.851562 13.441406 49.078125 13.4375 Z M 49.078125 13.441406 " fill-opacity="1" fill-rule="nonzero"/><path fill="#000000" d="M 52.472656 16.242188 C 52.929688 16.230469 53.3125 16.058594 53.625 15.726562 L 53.625 16.136719 L 54.347656 16.136719 L 54.347656 12.847656 L 53.625 12.847656 L 53.625 13.261719 L 53.613281 13.261719 C 53.332031 12.910156 52.96875 12.734375 52.519531 12.734375 C 51.609375 12.734375 50.875 13.464844 50.875 14.472656 C 50.875 15.566406 51.628906 16.242188 52.472656 16.242188 Z M 52.640625 13.457031 C 53.109375 13.457031 53.601562 13.800781 53.601562 14.480469 C 53.601562 15.09375 53.183594 15.519531 52.640625 15.519531 C 52.507812 15.519531 52.382812 15.492188 52.261719 15.441406 C 52.136719 15.386719 52.03125 15.316406 51.941406 15.21875 C 51.847656 15.125 51.777344 15.015625 51.730469 14.894531 C 51.683594 14.769531 51.660156 14.644531 51.664062 14.511719 C 51.664062 14.011719 51.992188 13.457031 52.640625 13.457031 Z M 52.640625 13.457031 " fill-opacity="1" fill-rule="nonzero"/><g clip-path="url(#611f20f08a)"><path fill="#000000" d="M 54.707031 11.75 L 55.496094 11.75 L 55.496094 16.136719 L 54.707031 16.136719 Z M 54.707031 11.75 " fill-opacity="1" fill-rule="nonzero"/></g></svg>