<svg xmlns="http://www.w3.org/2000/svg" xmlns:xlink="http://www.w3.org/1999/xlink" width="100" zoomAndPan="magnify" viewBox="0 0 75 30.000001" height="40" preserveAspectRatio="xMidYMid meet" version="1.0"><defs><clipPath id="e6d683d2da"><path d="M 27 10.371094 L 31 10.371094 L 31 17 L 27 17 Z M 27 10.371094 " clip-rule="nonzero"/></clipPath><clipPath id="2dbabd83b5"><path d="M 30 10.371094 L 32 10.371094 L 32 17 L 30 17 Z M 30 10.371094 " clip-rule="nonzero"/></clipPath><clipPath id="bd67ec4725"><path d="M 36 10.371094 L 42 10.371094 L 42 17 L 36 17 Z M 36 10.371094 " clip-rule="nonzero"/></clipPath><clipPath id="73ce7542f7"><path d="M 47 12 L 52 12 L 52 18.355469 L 47 18.355469 Z M 47 12 " clip-rule="nonzero"/></clipPath></defs><path fill="#000000" d="M 23.011719 15.199219 L 23.625 15.199219 C 23.671875 15.722656 24.148438 16.011719 24.753906 16.011719 C 25.320312 16.011719 25.59375 15.789062 25.59375 15.390625 C 25.59375 15.011719 25.296875 14.925781 24.882812 14.785156 L 24.300781 14.585938 C 23.710938 14.390625 23.117188 14.207031 23.117188 13.480469 C 23.117188 12.800781 23.648438 12.359375 24.527344 12.359375 C 25.40625 12.359375 26.027344 12.839844 26.125 13.730469 L 25.511719 13.730469 C 25.441406 13.171875 25.050781 12.898438 24.503906 12.898438 C 24.011719 12.898438 23.722656 13.117188 23.722656 13.464844 C 23.722656 13.882812 24.160156 13.964844 24.492188 14.078125 L 25.042969 14.261719 C 25.777344 14.503906 26.214844 14.753906 26.214844 15.417969 C 26.214844 16.125 25.699219 16.546875 24.722656 16.546875 C 23.769531 16.546875 23.066406 16.046875 23.011719 15.199219 Z M 23.011719 15.199219 " fill-opacity="1" fill-rule="nonzero"/><g clip-path="url(#e6d683d2da)"><path fill="#000000" d="M 27.007812 16.464844 L 27.007812 10.785156 L 27.636719 10.785156 L 27.636719 14.425781 L 29.589844 12.453125 L 30.347656 12.453125 L 28.902344 13.914062 L 30.566406 16.464844 L 29.832031 16.464844 L 28.46875 14.351562 L 27.636719 15.191406 L 27.636719 16.460938 Z M 27.007812 16.464844 " fill-opacity="1" fill-rule="nonzero"/></g><g clip-path="url(#2dbabd83b5)"><path fill="#000000" d="M 30.941406 11.308594 C 30.941406 11.25 30.953125 11.1875 30.976562 11.128906 C 31 11.074219 31.035156 11.023438 31.078125 10.976562 C 31.121094 10.933594 31.171875 10.902344 31.230469 10.878906 C 31.289062 10.855469 31.347656 10.84375 31.410156 10.847656 C 31.472656 10.847656 31.53125 10.855469 31.589844 10.878906 C 31.648438 10.902344 31.699219 10.9375 31.742188 10.980469 C 31.785156 11.023438 31.820312 11.074219 31.839844 11.132812 C 31.863281 11.1875 31.875 11.25 31.871094 11.308594 C 31.875 11.371094 31.863281 11.433594 31.839844 11.488281 C 31.820312 11.546875 31.785156 11.597656 31.742188 11.644531 C 31.699219 11.6875 31.648438 11.722656 31.589844 11.746094 C 31.535156 11.769531 31.472656 11.78125 31.410156 11.777344 C 31.347656 11.78125 31.289062 11.769531 31.230469 11.746094 C 31.171875 11.722656 31.121094 11.6875 31.078125 11.644531 C 31.03125 11.601562 31 11.546875 30.976562 11.492188 C 30.953125 11.433594 30.941406 11.371094 30.941406 11.308594 Z M 31.09375 16.464844 L 31.09375 12.453125 L 31.71875 12.453125 L 31.71875 16.464844 Z M 31.09375 16.464844 " fill-opacity="1" fill-rule="nonzero"/></g><path fill="#000000" d="M 32.753906 16.464844 L 32.753906 12.453125 L 33.253906 12.453125 L 33.3125 13.066406 C 33.585938 12.640625 34.109375 12.359375 34.707031 12.359375 C 35.566406 12.359375 36.144531 12.921875 36.144531 13.808594 L 36.144531 16.464844 L 35.519531 16.464844 L 35.519531 13.828125 C 35.519531 13.269531 35.15625 12.914062 34.550781 12.914062 C 33.832031 12.914062 33.390625 13.414062 33.382812 14.027344 L 33.382812 16.464844 Z M 32.753906 16.464844 " fill-opacity="1" fill-rule="nonzero"/><g clip-path="url(#bd67ec4725)"><path fill="#000000" d="M 38.898438 12.582031 C 39.089844 12.582031 39.277344 12.625 39.453125 12.703125 C 39.625 12.785156 39.777344 12.902344 39.898438 13.050781 L 40.40625 10.976562 L 39.808594 10.914062 L 41.035156 10.394531 L 39.6875 15.957031 C 39.648438 16.132812 39.6875 16.230469 39.800781 16.230469 C 39.996094 16.230469 40.351562 15.894531 40.859375 14.664062 C 40.40625 16.085938 40.019531 16.554688 39.597656 16.554688 C 39.269531 16.554688 39.117188 16.320312 39.210938 15.90625 L 39.484375 14.792969 L 39.421875 14.792969 C 38.996094 15.761719 38.460938 16.554688 37.824219 16.554688 C 37.136719 16.554688 36.839844 15.972656 36.839844 15.261719 C 36.839844 14.058594 37.660156 12.582031 38.898438 12.582031 Z M 38.007812 16.28125 C 38.605469 16.28125 39.226562 15.1875 39.6875 13.949219 L 39.695312 13.890625 C 39.761719 13.222656 39.476562 12.703125 38.914062 12.703125 C 37.980469 12.703125 37.367188 14.1875 37.367188 15.238281 C 37.371094 15.832031 37.558594 16.28125 38.007812 16.28125 Z M 38.007812 16.28125 " fill-opacity="1" fill-rule="nonzero"/></g><path fill="#000000" d="M 43.183594 12.582031 C 43.917969 12.582031 44.320312 13.171875 44.167969 14.078125 L 44.160156 14.125 L 41.746094 14.125 C 41.683594 14.359375 41.648438 14.601562 41.648438 14.84375 C 41.648438 15.570312 41.972656 16.183594 42.707031 16.183594 C 43.28125 16.191406 43.789062 15.796875 44.136719 15.0625 C 43.757812 16.039062 43.183594 16.5625 42.496094 16.554688 C 41.570312 16.546875 41.164062 15.851562 41.164062 15.039062 C 41.164062 13.828125 42.003906 12.582031 43.183594 12.582031 Z M 43.472656 14.019531 C 43.621094 14.019531 43.726562 13.921875 43.765625 13.730469 C 43.867188 13.171875 43.601562 12.695312 43.144531 12.695312 C 42.519531 12.695312 42.003906 13.285156 41.785156 14.019531 Z M 43.472656 14.019531 " fill-opacity="1" fill-rule="nonzero"/><path fill="#000000" d="M 46.6875 12.582031 C 47.421875 12.582031 47.824219 13.171875 47.671875 14.078125 L 47.664062 14.125 L 45.25 14.125 C 45.1875 14.359375 45.152344 14.601562 45.152344 14.84375 C 45.152344 15.570312 45.476562 16.183594 46.210938 16.183594 C 46.785156 16.191406 47.292969 15.796875 47.640625 15.0625 C 47.261719 16.039062 46.6875 16.5625 46 16.554688 C 45.074219 16.546875 44.667969 15.851562 44.667969 15.039062 C 44.667969 13.828125 45.507812 12.582031 46.6875 12.582031 Z M 46.976562 14.019531 C 47.125 14.019531 47.234375 13.921875 47.269531 13.730469 C 47.367188 13.171875 47.105469 12.695312 46.648438 12.695312 C 46.023438 12.695312 45.507812 13.285156 45.289062 14.019531 Z M 46.976562 14.019531 " fill-opacity="1" fill-rule="nonzero"/><g clip-path="url(#73ce7542f7)"><path fill="#000000" d="M 47.785156 18.554688 L 49.074219 13.234375 C 49.132812 12.984375 49.085938 12.90625 48.988281 12.90625 C 48.785156 12.90625 48.398438 13.390625 48.011719 14.179688 C 48.335938 13.195312 48.824219 12.582031 49.265625 12.582031 C 49.503906 12.582031 49.671875 12.78125 49.578125 13.195312 L 49.199219 14.746094 L 49.25 14.746094 C 49.675781 13.710938 50.304688 12.582031 51.089844 12.582031 C 51.6875 12.582031 51.976562 13.121094 51.976562 13.808594 C 51.976562 15.011719 51.160156 16.554688 49.984375 16.554688 C 49.578125 16.554688 49.203125 16.367188 48.894531 16.003906 L 48.394531 18.054688 L 49.015625 18.109375 Z M 50.003906 16.441406 C 50.851562 16.449219 51.449219 14.914062 51.449219 13.851562 C 51.449219 13.292969 51.273438 12.851562 50.875 12.851562 C 50.125 12.851562 49.464844 14.382812 49.066406 15.425781 C 49.1875 16.046875 49.542969 16.441406 50.003906 16.441406 Z M 50.003906 16.441406 " fill-opacity="1" fill-rule="nonzero"/></g></svg>